<svg width="49" height="48" viewBox="0 0 49 48" fill="none" xmlns="http://www.w3.org/2000/svg">
<path d="M42.6665 8H6.6665C6.13607 8 5.62736 8.21071 5.25229 8.58579C4.87722 8.96086 4.6665 9.46957 4.6665 10V38C4.6665 38.5304 4.87722 39.0391 5.25229 39.4142C5.62736 39.7893 6.13607 40 6.6665 40H42.6665C43.1969 40 43.7056 39.7893 44.0807 39.4142C44.4558 39.0391 44.6665 38.5304 44.6665 38V10C44.6665 9.46957 44.4558 8.96086 44.0807 8.58579C43.7056 8.21071 43.1969 8 42.6665 8ZM40.6665 30C39.0752 30 37.5491 30.6321 36.4239 31.7574C35.2986 32.8826 34.6665 34.4087 34.6665 36H14.6665C14.6665 34.4087 14.0344 32.8826 12.9091 31.7574C11.7839 30.6321 10.2578 30 8.6665 30V18C10.2578 18 11.7839 17.3679 12.9091 16.2426C14.0344 15.1174 14.6665 13.5913 14.6665 12H34.6665C34.6665 13.5913 35.2986 15.1174 36.4239 16.2426C37.5491 17.3679 39.0752 18 40.6665 18V30Z" fill="#465FFC"/>
<path d="M24.6665 16C20.2545 16 16.6665 19.588 16.6665 24C16.6665 28.412 20.2545 32 24.6665 32C29.0785 32 32.6665 28.412 32.6665 24C32.6665 19.588 29.0785 16 24.6665 16ZM24.6665 28C22.4605 28 20.6665 26.206 20.6665 24C20.6665 21.794 22.4605 20 24.6665 20C26.8725 20 28.6665 21.794 28.6665 24C28.6665 26.206 26.8725 28 24.6665 28Z" fill="#465FFC"/>
</svg>
