<svg width="49" height="48" viewBox="0 0 49 48" fill="none" xmlns="http://www.w3.org/2000/svg">
<path d="M24.3335 4C13.3055 4 4.3335 12.972 4.3335 24C4.3335 35.028 13.3055 44 24.3335 44C35.3615 44 44.3335 35.028 44.3335 24C44.3335 12.972 35.3615 4 24.3335 4ZM24.3335 40C15.5115 40 8.3335 32.822 8.3335 24C8.3335 15.178 15.5115 8 24.3335 8C33.1555 8 40.3335 15.178 40.3335 24C40.3335 32.822 33.1555 40 24.3335 40Z" fill="#00CDFC"/>
<path d="M24.3335 10.3321V24.0001H38.0015C38.006 22.2039 37.6555 20.4246 36.9702 18.7643C36.2849 17.104 35.2783 15.5954 34.0082 14.3253C32.7381 13.0553 31.2296 12.0486 29.5693 11.3634C27.909 10.6781 26.1297 10.3276 24.3335 10.3321Z" fill="#00CDFC"/>
</svg>
