<svg width="249" height="33" viewBox="0 0 249 33" fill="none" xmlns="http://www.w3.org/2000/svg">
<path d="M39.076 0.933594L26.5413 8.1925L14.0066 0.933594L0.499023 8.67892V24.2818L14.0066 32.0646L26.5413 24.8057L39.076 32.0646L52.5835 24.2818V8.67892L39.076 0.933594ZM40.0114 18.1828L49.7024 23.758L40.0114 29.3331V18.1828ZM40.9842 16.5365L50.6753 10.9614V22.149L40.9842 16.5365ZM13.0337 14.8901L3.34272 9.31501L13.0337 3.73987V14.8901ZM12.0983 16.5365L2.40729 22.1116V10.9239L12.0983 16.5365ZM14.942 3.70245L24.633 9.27759L14.942 14.8527V3.70245ZM3.34272 23.7954L39.076 3.17862L49.7024 9.31501L13.9692 29.9318L3.34272 23.7954ZM38.1406 18.1828V29.3705L28.4495 23.7954L38.1406 18.1828Z" fill="black"/>
<path d="M74.8477 10.1035H79.4125C83.3787 10.1035 86.0353 12.835 86.0353 16.5018C86.0353 20.2061 83.3787 22.8627 79.4125 22.8627H74.8477V10.1035ZM79.45 21.2164C82.4059 21.2164 84.0897 19.121 84.0897 16.5392C84.0897 13.9201 82.4433 11.8247 79.45 11.8247H76.7933V21.2164H79.45Z" fill="black"/>
<path d="M91.2354 10.1035H99.8038V11.7873H93.1436V15.529H99.6916V17.2127H93.1436V21.179H99.8038V22.8627H91.2354V10.1035Z" fill="black"/>
<path d="M105.043 10.1035H113.649V11.7873H106.989V15.529H113.537V17.2128H106.989V22.9001H105.043V10.1035Z" fill="black"/>
<path d="M118.588 10.1035H120.496V22.9001H118.588V10.1035Z" fill="black"/>
<path d="M128.168 13.2482V22.9018H126.26V10.1426H128.243L135.202 19.5717V10.1426H137.111V22.9018H135.24L128.168 13.2482Z" fill="black"/>
<path d="M142.796 10.1035H144.704V22.9001H142.796V10.1035Z" fill="black"/>
<path d="M153.572 11.8263H149.606V10.1426H159.447V11.8263H155.518V22.9018H153.61L153.572 11.8263Z" fill="black"/>
<path d="M167.978 17.5495L162.964 10.1035H165.172L168.914 15.8283L172.618 10.1035H174.826L169.849 17.5495V22.9001H167.941L167.978 17.5495Z" fill="black"/>
<path d="M189.605 10.1035H198.211V11.7873H191.551V15.529H198.099V17.2128H191.551V22.9001H189.643L189.605 10.1035Z" fill="black"/>
<path d="M203.151 10.1035H205.059V22.9001H203.151V10.1035Z" fill="black"/>
<path d="M215.049 17.9627H212.654V22.9018H210.746V10.1426H216.172C218.604 10.1426 220.287 11.7141 220.287 14.0714C220.287 16.3538 218.753 17.5886 217.107 17.8131L220.4 22.9392H218.192L215.049 17.9627ZM215.872 11.8263H212.654V16.3164H215.872C217.257 16.3164 218.229 15.4184 218.229 14.0714C218.304 12.7244 217.294 11.8263 215.872 11.8263Z" fill="black"/>
<path d="M225.788 19.607C226.649 20.5799 228.033 21.403 229.792 21.403C231.85 21.403 232.598 20.3554 232.598 19.4199C232.598 18.0729 231.139 17.6988 229.53 17.2872C227.472 16.7633 225.115 16.1647 225.115 13.5455C225.115 11.4501 226.985 9.91602 229.642 9.91602C231.625 9.91602 233.159 10.5521 234.282 11.712L233.159 13.1339C232.186 12.0862 230.839 11.6372 229.455 11.6372C228.033 11.6372 227.06 12.3481 227.06 13.4332C227.06 14.5931 228.445 14.9299 230.016 15.3415C232.112 15.9027 234.544 16.5388 234.544 19.2703C234.544 21.2534 233.159 23.1242 229.717 23.1242C227.434 23.1242 225.788 22.3011 224.666 21.1037L225.788 19.607Z" fill="black"/>
<path d="M242.626 11.8263H238.66V10.1426H248.5V11.8263H244.572V22.9018H242.663V11.8263H242.626Z" fill="black"/>
</svg>
