<?xml version="1.0" standalone="no"?>
<!DOCTYPE svg PUBLIC "-//W3C//DTD SVG 20010904//EN"
 "http://www.w3.org/TR/2001/REC-SVG-20010904/DTD/svg10.dtd">
<svg version="1.0" xmlns="http://www.w3.org/2000/svg"
 width="266.000000pt" height="161.000000pt" viewBox="0 0 266.000000 161.000000"
 preserveAspectRatio="xMidYMid meet">
<metadata>
Created by potrace 1.16, written by Peter Selinger 2001-2019
</metadata>
<g transform="translate(0.000000,161.000000) scale(0.100000,-0.100000)"
fill="#000000" stroke="none">
<path d="M1079 1451 l-29 -29 0 -492 0 -492 29 -29 c39 -39 106 -41 148 -5
l27 24 46 -22 c38 -17 64 -21 165 -21 111 0 124 2 175 28 30 15 67 37 82 50
l28 23 -35 49 c-20 27 -45 74 -56 105 l-20 56 -44 -43 c-49 -46 -88 -59 -162
-50 -51 5 -83 26 -127 81 -29 35 -31 44 -31 116 0 72 2 81 31 116 44 55 76 76
127 81 68 8 109 -3 155 -42 48 -41 65 -86 81 -204 13 -105 46 -176 111 -245
148 -157 386 -179 559 -52 66 48 111 117 111 169 0 31 -7 46 -34 73 -29 29
-41 34 -81 34 -43 0 -51 -4 -101 -55 -75 -75 -140 -92 -219 -56 -132 59 -162
225 -58 323 81 77 187 75 266 -6 69 -71 114 -83 174 -46 35 21 60 81 50 122
-16 62 -118 155 -206 189 -145 55 -341 18 -436 -81 l-28 -29 -41 35 c-113 97
-294 127 -429 71 l-37 -16 0 100 c0 150 -29 199 -118 199 -35 0 -49 -6 -73
-29z"/>
<path d="M264 1223 c-12 -2 -30 -13 -40 -25 -18 -19 -19 -46 -22 -382 -2 -398
-2 -398 58 -429 47 -24 97 -15 133 24 l27 29 0 222 0 222 75 -102 c69 -93 79
-102 108 -102 42 0 50 7 128 109 l64 84 5 -220 c5 -241 6 -244 68 -270 46 -19
96 -8 127 29 l26 30 -3 369 c-3 365 -3 369 -25 390 -16 17 -35 23 -70 23 -82
2 -106 -16 -210 -151 -78 -102 -98 -122 -108 -111 -7 7 -49 60 -95 118 -45 58
-94 113 -108 122 -29 17 -103 29 -138 21z"/>
</g>
</svg>
