<svg width="176" height="43" viewBox="0 0 176 43" fill="none" xmlns="http://www.w3.org/2000/svg">
<mask id="mask0_1_7234" style="mask-type:luminance" maskUnits="userSpaceOnUse" x="0" y="0" width="176" height="43">
<path d="M0.194336 0.5H175.498V42.5H0.194336V0.5Z" fill="white"/>
</mask>
<g mask="url(#mask0_1_7234)">
<path d="M38.8673 42.2605C33.5113 42.2605 26.6813 38.8045 20.7363 33.0095C20.4683 33.7535 20.1473 34.4715 19.8263 35.1625C17.7643 39.3095 14.8183 41.5685 11.5243 41.5685C8.23034 41.5685 5.23034 39.3355 3.16834 35.2955C1.23834 31.6275 0.194336 26.6565 0.194336 21.3665C0.194336 12.7275 3.06034 5.44348 7.69334 2.33348C10.9073 0.180484 14.9513 -0.0855163 19.3703 1.56248C23.1193 2.94448 27.1633 5.70948 31.1543 9.61648C31.5023 8.68648 31.9313 7.75548 32.4393 6.87848C34.5283 3.21048 37.4473 1.19048 40.6343 1.19048C47.0083 1.19048 51.8023 9.85648 51.8023 21.3665C51.8023 26.3635 50.8923 30.9365 49.1513 34.6315C48.4013 36.3065 47.3573 37.8215 46.0983 39.1765C45.0003 40.3725 43.6073 41.2765 42.0543 41.8085C41.0183 42.1073 39.9456 42.2594 38.8673 42.2605ZM21.5663 30.3515C29.0383 38.1135 37.0723 40.8245 41.3043 39.4425C43.4733 38.7245 45.4553 36.6515 46.9013 33.5675C48.4813 30.2185 49.3113 25.9915 49.3113 21.3665C49.3113 16.4755 48.3743 11.9295 46.6333 8.55348C44.9993 5.39048 42.8843 3.63548 40.6343 3.63548C37.3933 3.63548 34.5813 6.85148 33.0823 11.6105C39.1083 18.2025 43.0723 26.2575 42.7233 31.4145C42.5893 33.2755 41.9203 34.7375 40.7683 35.6945L40.6613 35.7745C39.3753 36.6255 37.8763 36.6785 36.4033 35.8805C32.5733 33.8605 29.4673 26.4435 29.4673 19.3995C29.4673 17.0075 29.7353 14.6145 30.3243 12.2755C22.1823 3.87548 14.2543 0.924484 9.08534 4.38048C5.17534 6.98548 2.65734 13.6575 2.65734 21.3665C2.65734 31.3345 6.54034 39.1235 11.4953 39.1235C14.5753 39.1235 17.2533 35.9335 18.7803 31.0155C14.8163 26.6025 11.8173 21.6855 10.3173 17.1125C8.87134 12.6465 9.03234 9.03148 10.7723 7.22348C11.8973 6.05348 13.5573 5.76148 15.3253 6.47948C18.9673 7.94148 22.6903 13.4445 22.6903 21.1265C22.6903 24.2365 22.3153 27.3205 21.5653 30.3505L21.5663 30.3515ZM32.3863 14.5345C32.0966 16.1398 31.9534 17.7682 31.9583 19.3995C31.9583 26.0715 34.9313 32.2915 37.5823 33.7005C38.3853 34.1255 38.8943 33.9665 39.2423 33.7275C39.8313 33.2225 40.1793 32.3715 40.2603 31.2555C40.5283 27.0825 37.2873 20.3035 32.3863 14.5355V14.5345ZM13.4783 8.55348C13.3096 8.55246 13.1424 8.58479 12.9862 8.64864C12.83 8.71248 12.688 8.80656 12.5683 8.92548C11.7643 9.74948 11.3363 12.1955 12.6753 16.3415C13.9073 20.1695 16.3173 24.2635 19.5313 28.0645C19.9863 25.7515 20.2003 23.4395 20.1743 21.0995C20.2013 13.7895 16.6393 9.66948 14.3893 8.76548C14.0943 8.63248 13.8003 8.58048 13.4783 8.55348Z" fill="#47D7AC"/>
<path d="M67.3096 27.9846V14.7996H70.6036V16.9526C71.1126 16.1556 71.8356 15.5436 72.6926 15.1716C73.7106 14.6926 74.8086 14.4536 75.9066 14.4806C78.6116 14.4806 80.2456 15.4106 80.8076 17.2986C81.0216 17.9896 81.1286 18.9466 81.1286 20.1966V28.0116H77.7806V20.9676C77.7806 19.9046 77.6466 19.1596 77.4056 18.7346C77.0036 17.9376 76.0936 17.5386 74.7276 17.5386C73.9176 17.5369 73.1189 17.7282 72.3976 18.0966C71.7016 18.4156 71.1126 18.8936 70.6836 19.5316V27.9846H67.3096ZM95.8866 28.4096C94.2266 28.4096 93.2086 27.8516 92.8336 26.7086C91.8156 27.9316 90.2086 28.5426 87.9866 28.5426C86.2996 28.5426 84.9866 28.1706 84.0496 27.3996C83.6038 27.05 83.2457 26.6012 83.0039 26.0889C82.762 25.5766 82.6431 25.0149 82.6566 24.4486C82.6566 22.5086 83.6476 21.2586 85.6566 20.6736C86.9156 20.3276 88.4956 20.1416 90.3966 20.1416C91.0515 20.1418 91.7052 20.195 92.3516 20.3006V19.8756C92.3794 19.3116 92.1872 18.7587 91.8156 18.3336C91.3336 17.8286 90.4226 17.5896 89.0836 17.5896C86.9676 17.5896 85.2536 18.1216 83.8876 19.1576H83.7806V16.1806C85.4146 15.1436 87.4226 14.6126 89.8066 14.6126C91.7346 14.6126 93.1806 14.9846 94.1456 15.7026C94.675 16.0961 95.0831 16.6304 95.3236 17.2446C95.5646 17.8566 95.6986 18.6796 95.6986 19.7166L95.6716 21.4176L95.6446 23.1456C95.6446 24.1296 95.6986 24.7136 95.7786 24.8996C95.9126 25.2716 96.2876 25.4576 96.8496 25.4576C97.2125 25.4587 97.5736 25.4051 97.9206 25.2986V28.0096C97.4116 28.3016 96.7426 28.4086 95.8856 28.4086L95.8866 28.4096ZM92.3516 22.7206C91.7136 22.6236 91.0688 22.5791 90.4236 22.5876C89.4866 22.5606 88.5486 22.6676 87.6386 22.8536C86.5946 23.0926 86.0586 23.5976 86.0586 24.3956C86.0586 25.4586 86.9426 25.9906 88.6836 25.9906C90.3176 25.9906 91.5496 25.5116 92.3796 24.5286C92.3526 24.1826 92.3516 23.5716 92.3516 22.7206ZM99.9566 29.0746H100.064C101.618 30.2176 103.6 30.7756 106.01 30.7756C107.885 30.7756 109.224 30.3506 110 29.5266C110.536 28.9686 110.804 28.0646 110.804 26.7616V25.7786C110.429 26.3896 109.786 26.9216 108.849 27.3466C107.857 27.7944 106.777 28.0124 105.689 27.9846C103.573 27.9846 101.832 27.4526 100.466 26.3626C99.0996 25.2726 98.4306 23.7046 98.4036 21.6306C98.3766 20.5146 98.6176 19.3976 99.0736 18.3876C99.4756 17.5106 100.118 16.7396 100.895 16.1816C101.627 15.6762 102.43 15.2819 103.278 15.0116C104.109 14.7456 104.992 14.6396 105.876 14.6396C106.947 14.6126 107.992 14.8256 108.983 15.1976C109.92 15.5696 110.536 16.0486 110.831 16.6066V15.0116H114.044V26.6016C114.044 28.4886 113.696 29.9246 113 30.9616C111.741 32.7956 109.411 33.6996 105.983 33.6996C104.775 33.6997 103.571 33.5659 102.394 33.3006C101.323 33.0346 100.493 32.7156 99.9306 32.3166L99.9566 29.0746ZM110.697 19.5046C110.349 18.8396 109.786 18.3086 109.09 18.0156C108.286 17.6436 107.403 17.4576 106.519 17.4836C105.34 17.453 104.183 17.8076 103.225 18.4936C102.314 19.1586 101.859 20.1946 101.859 21.5506C101.859 22.7206 102.314 23.5976 103.198 24.2086C104.162 24.8466 105.314 25.1386 106.465 25.1126C107.349 25.1126 108.233 24.9266 109.036 24.5806C109.733 24.2876 110.322 23.7836 110.724 23.1446L110.697 19.5026V19.5046ZM128.8 28.4096C127.139 28.4096 126.122 27.8516 125.747 26.7086C124.729 27.9316 123.122 28.5426 120.926 28.5426C119.239 28.5426 117.926 28.1706 116.989 27.3996C116.543 27.05 116.185 26.6012 115.943 26.0889C115.701 25.5766 115.582 25.0149 115.596 24.4486C115.596 22.5086 116.587 21.2586 118.596 20.6736C119.855 20.3276 121.435 20.1416 123.336 20.1416C123.99 20.1418 124.644 20.195 125.291 20.3006V19.9016C125.318 19.3436 125.131 18.7846 124.756 18.3596C124.274 17.8546 123.363 17.6156 122.024 17.6156C119.908 17.6156 118.194 18.1476 116.828 19.1836H116.694V16.1796C118.328 15.1426 120.337 14.6116 122.72 14.6116C124.649 14.6116 126.095 14.9836 127.059 15.7016C127.588 16.0951 127.996 16.6294 128.237 17.2436C128.478 17.8546 128.612 18.6786 128.612 19.7156L128.585 21.4166L128.559 23.1446C128.559 24.1286 128.612 24.7126 128.693 24.8986C128.826 25.2706 129.201 25.4566 129.764 25.4566C130.127 25.4579 130.488 25.4043 130.835 25.2976V28.0086C130.326 28.3006 129.657 28.4076 128.8 28.4076V28.4096ZM125.265 22.7206C124.622 22.6146 123.979 22.5876 123.336 22.5876C122.399 22.5606 121.462 22.6676 120.551 22.8536C119.507 23.0926 118.971 23.5976 118.971 24.3956C118.971 25.4586 119.828 25.9906 121.595 25.9906C123.229 25.9906 124.461 25.5116 125.291 24.5286C125.265 24.1826 125.265 23.5716 125.265 22.7206ZM132.308 28.1976V14.9856H135.602V17.2186C135.843 16.5546 136.352 15.9696 137.129 15.4376C137.959 14.8796 138.95 14.6136 139.941 14.6406C140.718 14.6406 141.334 14.7736 141.762 15.0126V18.3356H141.655C141.016 18.0463 140.32 17.9097 139.62 17.9366C138.744 17.9136 137.875 18.0862 137.075 18.4416C136.459 18.7336 135.951 19.2386 135.71 19.8506V28.1706L132.308 28.1976ZM166.348 26.5756C164.902 27.8786 163.027 28.5426 160.724 28.5426C158.421 28.5426 156.546 27.9046 155.127 26.6026C153.708 25.3006 152.984 23.6256 152.984 21.5786C152.984 19.5316 153.707 17.8566 155.18 16.5816C156.626 15.2786 158.501 14.6416 160.804 14.6416C163.161 14.6416 165.036 15.2796 166.428 16.5556C167.82 17.8316 168.517 19.5066 168.517 21.6066C168.491 23.6006 167.767 25.2746 166.348 26.5776V26.5756ZM163.938 18.6806C163.134 17.9096 162.117 17.5376 160.751 17.5376C159.412 17.5376 158.367 17.9096 157.537 18.6806C156.707 19.4246 156.251 20.4886 156.278 21.5776C156.251 22.6936 156.707 23.7576 157.564 24.4746C158.421 25.2186 159.465 25.5646 160.751 25.5646C162.063 25.5646 163.107 25.1926 163.911 24.4216C164.714 23.6776 165.143 22.6406 165.116 21.5506C165.17 20.4876 164.741 19.4516 163.938 18.6806ZM143.289 28.1976V14.9856H146.583V17.2186C146.824 16.5546 147.333 15.9696 148.109 15.4376C148.94 14.8796 149.931 14.6136 150.921 14.6406C151.698 14.6406 152.314 14.7736 152.743 15.0126V18.3356H152.636C151.997 18.0458 151.3 17.9092 150.6 17.9366C149.716 17.9096 148.833 18.0966 148.056 18.4416C147.44 18.7336 146.931 19.2386 146.663 19.8506V28.1706L143.289 28.1976Z" fill="#13294B"/>
</g>
</svg>
