<svg width="154" height="47" viewBox="0 0 154 47" fill="none" xmlns="http://www.w3.org/2000/svg">
<path fill-rule="evenodd" clip-rule="evenodd" d="M23.4825 0.5625C30.8986 0.5625 37.4673 4.07988 41.6627 9.50428C40.2642 8.78385 38.7386 8.27532 37.213 7.93629L36.4502 7.80916L35.4755 7.7244H32.8057L31.7462 7.80916C25.3471 8.91099 20.516 13.4031 18.7785 19.4631C18.3971 20.8192 18.2276 22.1753 18.2276 23.5738C18.2276 26.3708 18.9056 29.1254 20.3465 31.5409C22.762 35.6092 26.9999 38.5333 31.9581 39.2113L33.0175 39.2961H35.6026L36.6621 39.2113C38.3996 38.9147 40.0523 38.3638 41.5779 37.5586C37.213 43.1949 30.2206 46.7547 22.4654 46.4156C10.5995 45.9071 0.979683 36.2873 0.513524 24.4214C0.0473648 11.3689 10.5148 0.5625 23.4825 0.5625ZM11.7861 38.6604H17.041V8.6991H6.27695L9.45531 14.1235H11.7861V38.6604Z" fill="black"/>
<path fill-rule="evenodd" clip-rule="evenodd" d="M34.2886 12.6406C40.3063 12.6406 45.1798 17.5141 45.1798 23.5318C45.1798 29.5495 40.3063 34.423 34.2886 34.423C28.2709 34.423 23.3975 29.5495 23.3975 23.5318C23.3975 17.5141 28.2709 12.6406 34.2886 12.6406Z" fill="black"/>
<path d="M56.4957 29.339V38.8741H50.2661V11.2012H60.0131C66.9631 11.2012 70.4381 14.1253 70.4381 20.0158C70.4381 22.8128 69.421 25.0164 67.4293 26.7539C65.4375 28.4491 62.7677 29.339 59.4198 29.339H56.4957ZM56.4957 15.9899V24.5927H58.9536C62.2591 24.5927 63.9119 23.1518 63.9119 20.2277C63.9119 17.3884 62.2591 15.9475 58.9536 15.9475H56.4957V15.9899Z" fill="black"/>
<path d="M89.3811 30.7373H76.4982C76.7101 33.5767 78.4899 35.0175 81.9226 35.0175C84.0838 35.0175 85.9909 34.509 87.6436 33.4919V37.8992C85.8213 38.8739 83.4482 39.3401 80.5241 39.3401C77.3457 39.3401 74.8878 38.4501 73.1079 36.6703C71.3704 34.8904 70.4805 32.4325 70.4805 29.2965C70.4805 26.0334 71.4128 23.4059 73.3198 21.4989C75.2268 19.5919 77.5576 18.6172 80.3122 18.6172C83.1939 18.6172 85.3976 19.4647 87.0079 21.1599C88.5759 22.855 89.3811 25.1858 89.3811 28.1099V30.7373ZM83.7448 26.9657C83.7448 24.1263 82.6006 22.7279 80.3122 22.7279C79.3375 22.7279 78.4899 23.1093 77.7695 23.9568C77.0491 24.762 76.6253 25.7791 76.4558 26.9657H83.7448Z" fill="black"/>
<path d="M108.663 38.8321H102.9V36.0352H102.815C101.501 38.2388 99.5096 39.3407 96.9245 39.3407C95.0175 39.3407 93.4919 38.7898 92.39 37.7303C91.2882 36.6285 90.7373 35.1876 90.7373 33.3654C90.7373 29.5513 93.0257 27.3477 97.5178 26.7544L102.9 26.0339C102.9 23.8727 101.713 22.8132 99.3824 22.8132C97.0093 22.8132 94.8056 23.4913 92.6867 24.8897V20.3129C93.5343 19.8891 94.6785 19.5077 96.1617 19.1687C97.6449 18.8297 98.9587 18.6602 100.188 18.6602C105.824 18.6602 108.621 21.4571 108.621 27.0934V38.8321H108.663ZM102.942 30.8227V29.509L99.3401 29.9751C97.3483 30.2294 96.3736 31.1193 96.3736 32.6449C96.3736 33.323 96.6279 33.9163 97.094 34.3401C97.6026 34.7638 98.2382 35.0181 99.0434 35.0181C100.188 35.0181 101.12 34.6367 101.84 33.8315C102.603 33.0263 102.942 32.0516 102.942 30.8227Z" fill="black"/>
<path d="M124.64 24.5923C123.919 24.2109 123.029 23.999 122.055 23.999C120.741 23.999 119.724 24.4652 118.961 25.4399C118.198 26.4146 117.859 27.7283 117.859 29.381V38.789H111.757V19.1255H117.859V22.7701H117.944C118.919 20.1002 120.656 18.7441 123.157 18.7441C123.792 18.7441 124.301 18.8289 124.682 18.956V24.5923H124.64Z" fill="black"/>
<path d="M132.734 32.178C132.734 33.0255 132.946 33.6612 133.327 34.085C133.709 34.5088 134.26 34.7207 134.938 34.7207C135.277 34.7207 135.616 34.6783 135.955 34.6359C136.294 34.5935 136.633 34.5088 136.972 34.424V38.7042C136.251 38.8737 135.446 39.0432 134.641 39.1704C133.836 39.2975 132.988 39.3399 132.098 39.3399C131.293 39.3399 130.573 39.2127 129.895 38.9585C129.217 38.7042 128.666 38.2804 128.2 37.7719C127.733 37.2633 127.352 36.6701 127.098 35.9496C126.843 35.2292 126.716 34.424 126.716 33.5341V9.63281H132.776V32.178H132.734Z" fill="black"/>
<path d="M138.413 38.3222V33.4064C139.43 33.9997 140.405 34.4658 141.422 34.7625C142.397 35.0591 143.371 35.1863 144.261 35.1863C145.321 35.1863 146.211 35.0591 146.804 34.7625C147.44 34.4658 147.736 33.9997 147.736 33.4064C147.736 33.025 147.609 32.686 147.312 32.4317C147.016 32.1774 146.677 31.9655 146.211 31.7536C145.787 31.5841 145.278 31.3722 144.77 31.2451C144.261 31.0756 143.753 30.9061 143.244 30.7366C142.481 30.4399 141.761 30.1009 141.168 29.8042C140.574 29.4652 140.066 29.0838 139.642 28.6177C139.261 28.1515 138.922 27.643 138.71 27.0497C138.498 26.4564 138.371 25.7783 138.371 24.9308C138.371 23.8289 138.625 22.8542 139.091 22.0914C139.557 21.2862 140.235 20.6506 140.998 20.142C141.803 19.6335 142.736 19.2521 143.753 19.0402C144.77 18.7859 145.872 18.7012 146.973 18.7012C147.863 18.7012 148.711 18.7859 149.643 18.9131C150.533 19.0402 151.423 19.2521 152.313 19.5064V24.2103C151.55 23.7442 150.703 23.4051 149.855 23.1933C148.965 22.9814 148.118 22.8542 147.27 22.8542C146.889 22.8542 146.507 22.8966 146.168 22.9814C145.829 23.0661 145.49 23.1509 145.236 23.278C144.982 23.4051 144.77 23.5747 144.6 23.7865C144.431 23.9984 144.346 24.2527 144.346 24.507C144.346 24.846 144.473 25.185 144.685 25.4393C144.939 25.6936 145.236 25.9055 145.575 26.1173C145.956 26.3292 146.38 26.4564 146.804 26.6259C147.27 26.7954 147.694 26.9225 148.16 27.092C148.965 27.3887 149.686 27.6853 150.364 28.0244C150.999 28.3634 151.593 28.7448 152.059 29.2109C152.525 29.6771 152.906 30.1856 153.118 30.7789C153.372 31.3722 153.5 32.0927 153.5 32.9402C153.5 34.1268 153.245 35.1015 152.737 35.9491C152.228 36.7966 151.55 37.4323 150.703 37.9832C149.855 38.4918 148.88 38.8732 147.779 39.1274C146.677 39.3817 145.533 39.4664 144.346 39.4664C142.269 39.3393 140.235 39.0003 138.413 38.3222Z" fill="black"/>
</svg>
