<svg width="143" height="23" viewBox="0 0 143 23" fill="none" xmlns="http://www.w3.org/2000/svg">
<mask id="mask0_1_7224" style="mask-type:luminance" maskUnits="userSpaceOnUse" x="0" y="0" width="143" height="23">
<path d="M142.194 0H0.194336V23H142.194V0Z" fill="white"/>
</mask>
<g mask="url(#mask0_1_7224)">
<path d="M8.661 22.9309C7.71342 22.9314 6.7706 22.8014 5.86098 22.5449C4.98743 22.2773 4.16524 21.8732 3.42718 21.3484C2.67709 20.8124 2.02386 20.1604 1.49392 19.4185C0.934629 18.5912 0.497241 17.6927 0.194336 16.7488L4.22735 15.2027C4.49274 16.232 5.03309 17.1758 5.79439 17.94C6.18028 18.3059 6.63953 18.5918 7.14395 18.7801C7.64835 18.9683 8.18726 19.0549 8.72759 19.0347C9.16568 19.0288 9.60166 18.9748 10.0272 18.8738C10.4215 18.7795 10.7944 18.6156 11.1269 18.3903C11.4559 18.1969 11.7217 17.9179 11.8938 17.5851C12.09 17.2397 12.1929 16.8522 12.1934 16.4582C12.1998 16.0813 12.1202 15.7076 11.9604 15.3636C11.7849 15.0069 11.5352 14.6891 11.2269 14.4297C10.8051 14.1025 10.3468 13.8217 9.8607 13.5923C9.19481 13.2707 8.49453 13.0124 7.79425 12.755L6.39479 12.2715C5.74564 12.0522 5.1204 11.7717 4.5281 11.4341C3.90704 11.0892 3.33545 10.667 2.82789 10.1787C2.31044 9.66959 1.88269 9.0821 1.56161 8.43958C1.23086 7.73201 1.06022 6.96441 1.06109 6.18803C1.0547 5.35489 1.23689 4.53045 1.59491 3.77246C1.95604 3.02851 2.46598 2.36097 3.09535 1.80826C3.76721 1.23 4.54788 0.781923 5.39486 0.488431C6.35876 0.166876 7.37158 0.00343707 8.39132 0.0048868C9.40034 -0.0215662 10.4058 0.131063 11.3578 0.455194C12.1284 0.714384 12.8491 1.09515 13.4908 1.58203C14.0503 1.9986 14.5248 2.51194 14.8903 3.09592C15.2293 3.58483 15.4985 4.1157 15.6905 4.67415L11.8905 6.18803C11.6656 5.54726 11.2619 4.97888 10.7241 4.54549C10.0791 4.03185 9.25965 3.76785 8.42461 3.80462C7.60575 3.76899 6.79755 3.99508 6.12511 4.44792C5.84008 4.62479 5.60538 4.86772 5.44235 5.15461C5.27935 5.44148 5.1932 5.7632 5.19177 6.09048C5.19086 6.41905 5.27225 6.74297 5.42896 7.03458C5.58569 7.3262 5.8131 7.57686 6.09181 7.76519C6.95556 8.35124 7.91261 8.79706 8.92513 9.08502L10.359 9.53532C11.2211 9.82302 12.0573 10.1784 12.8593 10.5978C13.5711 10.978 14.2222 11.4553 14.7927 12.0152C15.3326 12.5613 15.7521 13.2077 16.0256 13.9151C16.3201 14.6995 16.4667 15.5285 16.4585 16.3629C16.4807 17.3909 16.2401 18.4083 15.7582 19.3252C15.3159 20.1257 14.69 20.8178 13.9281 21.3484C13.1737 21.8845 12.3273 22.2878 11.4277 22.5395C10.5287 22.7933 9.59757 22.9251 8.661 22.9309ZM33.394 7.44139H37.2939V9.40559H37.5602C38.0526 8.66601 38.7286 8.05713 39.5267 7.63439C40.3745 7.18532 41.3267 6.95249 42.2935 6.95785C43.3444 6.92612 44.38 7.20721 45.26 7.76305C46.0227 8.23283 46.6166 8.91886 46.9602 9.72728C47.4841 8.93727 48.1916 8.27642 49.0266 7.79735C49.9992 7.22853 51.1235 6.94852 52.2595 6.99216C53.1062 6.96346 53.949 7.11728 54.7265 7.44246C55.3969 7.72612 55.9906 8.1554 56.4612 8.69689C56.9275 9.26093 57.2782 9.90573 57.4945 10.5968C57.7379 11.3907 57.8503 12.2167 57.8274 13.0446V22.5116H53.6612V13.72C53.6612 11.6915 52.7944 10.6611 51.0609 10.6611C50.5481 10.6519 50.0419 10.774 49.5938 11.0149C49.1558 11.2393 48.7877 11.5724 48.5273 11.9798C48.2252 12.4132 48.0001 12.8923 47.8614 13.3972C47.7019 13.9749 47.6236 14.5706 47.6283 15.1684V22.4785H43.461V13.7189C43.461 11.6903 42.5609 10.66 40.7276 10.66C40.2358 10.6472 39.7504 10.7699 39.3281 11.0138C38.9172 11.2502 38.5739 11.5819 38.3293 11.9788C38.0429 12.4165 37.8292 12.8948 37.6956 13.3962C37.5362 13.9739 37.4578 14.5695 37.4626 15.1674V22.4773H33.2941V7.44139H33.394ZM61.3277 0.485215H65.4939V7.08866L65.2275 9.24585H65.4939C65.918 8.56258 66.5294 8.00598 67.2606 7.6376C68.1682 7.15778 69.1932 6.92401 70.2271 6.96106C71.2072 6.9563 72.1759 7.16558 73.0605 7.57327C73.9528 7.96648 74.7569 8.52447 75.4277 9.21582C76.1396 9.9522 76.6947 10.8167 77.0613 11.7601C77.8612 13.8373 77.8612 16.1233 77.0613 18.2005C76.6867 19.1401 76.1326 20.0032 75.4277 20.7448C74.7626 21.4393 73.959 21.9966 73.0654 22.3836C72.1717 22.7705 71.2063 22.9789 70.2271 22.9963C69.1932 23.0334 68.1682 22.7996 67.2606 22.3198C66.5365 21.9418 65.9274 21.3874 65.4939 20.7115H65.2286V22.5149H61.3277V0.485215ZM69.3615 19.2276C69.9019 19.2329 70.437 19.1231 70.9285 18.906C71.4246 18.7153 71.8689 18.4179 72.2281 18.0365C72.6249 17.6469 72.9416 17.1881 73.1615 16.6845C73.4032 16.1242 73.5167 15.5199 73.4944 14.9133C73.5032 14.3076 73.3902 13.7061 73.1615 13.1421C72.9538 12.6322 72.6356 12.1712 72.2281 11.7901C71.8451 11.4359 71.4065 11.1425 70.9285 10.9206C70.435 10.7136 69.9034 10.6042 69.3654 10.5986C68.8273 10.5931 68.2937 10.6917 67.7956 10.8884C67.3025 11.0867 66.8511 11.3704 66.4638 11.7258C66.0394 12.1393 65.708 12.633 65.49 13.1758C65.2722 13.7187 65.1726 14.2993 65.1975 14.8811C65.1916 15.497 65.3045 16.1085 65.5305 16.6845C65.7343 17.1791 66.0405 17.6283 66.4301 18.0047C66.8198 18.3811 67.2847 18.6769 67.7967 18.8738C68.2798 19.1154 68.8176 19.237 69.3615 19.2276ZM80.4595 22.4442V7.43389H84.5946V22.4442H80.4595ZM95.6261 6.92247C96.7573 6.91363 97.8792 7.12171 98.9266 7.53467C99.8962 7.91256 100.78 8.47063 101.527 9.17722C102.277 9.89681 102.857 10.7648 103.227 11.7215C104.071 13.7908 104.071 16.0926 103.227 18.162C102.828 19.1045 102.252 19.9673 101.527 20.7061C100.789 21.4234 99.9028 21.9829 98.9266 22.3487C97.8783 22.7588 96.757 22.9668 95.6261 22.9609C94.4951 22.9696 93.3737 22.7616 92.3266 22.3487C91.3569 21.9709 90.4735 21.4127 89.7263 20.7061C88.9762 19.9865 88.3961 19.1186 88.0261 18.162C87.1817 16.0926 87.1817 13.7908 88.0261 11.7215C88.4248 10.7789 89.0012 9.91617 89.7263 9.17722C90.4646 8.46 91.3505 7.90043 92.3266 7.53467C93.3743 7.12319 94.4962 6.91656 95.6272 6.92676L95.6261 6.92247ZM95.6261 19.2245C96.1521 19.2281 96.6738 19.1297 97.1598 18.9349C97.6626 18.7359 98.1175 18.4387 98.496 18.062C98.8745 17.6853 99.1684 17.2371 99.3594 16.7456C99.8038 15.5816 99.8038 14.3028 99.3594 13.1389C99.164 12.6307 98.8569 12.1694 98.4593 11.7868C98.0842 11.4319 97.6439 11.1475 97.1609 10.9484C96.6739 10.7567 96.153 10.6584 95.6272 10.659C95.0905 10.6582 94.5586 10.7565 94.0601 10.9484C93.5573 11.1475 93.1024 11.4447 92.7239 11.8214C92.3453 12.1982 92.0515 12.6463 91.8605 13.1378C91.416 14.3017 91.416 15.5806 91.8605 16.7445C92.0515 17.236 92.3453 17.6842 92.7239 18.0609C93.1024 18.4377 93.5573 18.7348 94.0601 18.9339C94.5586 19.1259 95.0905 19.2241 95.6272 19.2234L95.6261 19.2245ZM112.526 22.9277C111.613 22.9412 110.703 22.822 109.826 22.5738C109.092 22.3511 108.396 22.0261 107.759 21.6089C107.192 21.2321 106.695 20.7635 106.292 20.2237C105.918 19.7352 105.604 19.2054 105.359 18.6454L109.065 17.1026C109.368 17.7995 109.864 18.4016 110.499 18.8417C111.092 19.2209 111.787 19.4227 112.497 19.4217C113.123 19.4594 113.747 19.3256 114.298 19.0358C114.489 18.95 114.654 18.8144 114.771 18.6441C114.888 18.4738 114.955 18.2753 114.964 18.0708C114.963 17.8718 114.911 17.6761 114.812 17.5017C114.713 17.3273 114.57 17.1797 114.396 17.0726C113.807 16.7201 113.149 16.4899 112.463 16.396L110.264 15.9458C109.746 15.8383 109.243 15.6761 108.763 15.4622C108.254 15.2415 107.782 14.9484 107.363 14.5927C106.939 14.2422 106.588 13.8159 106.33 13.3372C106.034 12.8157 105.895 12.2242 105.931 11.6303C105.93 10.9461 106.102 10.272 106.431 9.66614C106.764 9.09784 107.218 8.6039 107.763 8.21657C108.368 7.79751 109.044 7.48167 109.76 7.28271C110.574 7.06108 111.416 6.95277 112.26 6.96106C113.633 6.93081 114.993 7.21791 116.228 7.79843C117.392 8.35754 118.304 9.308 118.794 10.4713L115.261 11.8887C114.992 11.3294 114.533 10.8757 113.961 10.6021C113.432 10.3494 112.851 10.2175 112.26 10.2161C111.716 10.2064 111.178 10.3281 110.694 10.5699C110.507 10.6458 110.347 10.7703 110.228 10.9296C110.111 11.0888 110.041 11.2765 110.028 11.4716C110.035 11.648 110.091 11.8192 110.191 11.9669C110.291 12.1145 110.43 12.2328 110.595 12.309C111.066 12.5578 111.572 12.7422 112.096 12.8569L114.462 13.4048C115.798 13.636 117.031 14.2537 117.996 15.176C118.753 15.9483 119.172 16.9731 119.165 18.0365C119.161 18.6855 119.001 19.3248 118.699 19.9042C118.368 20.5108 117.916 21.0474 117.367 21.4824C116.735 21.9589 116.025 22.329 115.267 22.5771C114.376 22.8237 113.453 22.9429 112.527 22.9309L112.526 22.9277Z" fill="#292929"/>
<path d="M19.5944 18.7129C19.5966 17.7118 19.9621 16.7431 20.6276 15.9756C20.6276 15.9434 20.6276 15.9435 20.6609 15.9435C21.7103 14.7083 22.2875 13.1616 22.2947 11.5637C22.297 10.115 21.8179 8.70389 20.9283 7.53772L20.862 7.4734C20.4526 7.09063 20.1253 6.63376 19.8987 6.12881C19.6722 5.62387 19.5508 5.08071 19.5416 4.53046C19.5323 3.98019 19.6354 3.43356 19.8447 2.92175C20.0542 2.40994 20.3657 1.94302 20.7619 1.54759C21.1581 1.15216 21.6311 0.835958 22.1539 0.617102C22.6765 0.398247 23.2386 0.281 23.8083 0.27204C24.3778 0.26308 24.9437 0.362583 25.4734 0.564882C26.0032 0.767181 26.4866 1.0683 26.8959 1.45106L26.9956 1.54759C27.7636 2.29001 28.2168 3.28286 28.2661 4.33138C28.3154 5.37991 27.9571 6.40843 27.262 7.21504V7.24718C26.2153 8.49857 25.6498 10.0618 25.662 11.6706C25.6742 13.2795 26.2631 14.8346 27.3287 16.071V16.1032C27.6832 16.5345 27.9465 17.0291 28.1032 17.5587C28.26 18.0884 28.3072 18.6426 28.2422 19.1898C28.1772 19.737 28.0012 20.2665 27.7244 20.748C27.4477 21.2296 27.0755 21.6539 26.629 21.9964C26.1826 22.339 25.6705 22.5932 25.1223 22.7446C24.5741 22.8961 24.0005 22.9416 23.434 22.8788C22.8676 22.816 22.3195 22.6461 21.8211 22.3787C21.3226 22.1114 20.8835 21.7517 20.5289 21.3204C19.9272 20.5751 19.5986 19.658 19.5944 18.7129ZM21.7607 4.54426C21.7607 4.95819 21.8878 5.36282 22.1259 5.70699C22.3639 6.05116 22.7022 6.3194 23.098 6.4778C23.4939 6.6362 23.9296 6.67765 24.3498 6.5969C24.7701 6.51615 25.1559 6.3168 25.4588 6.0241C25.7618 5.73142 25.9684 5.35851 26.052 4.95253C26.1356 4.54657 26.0926 4.12576 25.9287 3.74335C25.7646 3.36092 25.487 3.03406 25.1307 2.80409C24.7744 2.57412 24.3556 2.45137 23.9271 2.45137C23.6427 2.45095 23.361 2.50476 23.098 2.60974C22.8351 2.71471 22.5963 2.86877 22.3953 3.0631C22.1941 3.25742 22.0345 3.48819 21.9259 3.74217C21.8172 3.99615 21.7615 4.2684 21.7621 4.54321L21.7607 4.54426Z" fill="#4285F4"/>
<path d="M82.5926 4.47868C83.7891 4.47868 84.759 3.54168 84.759 2.38583C84.759 1.22997 83.7891 0.292969 82.5926 0.292969C81.3962 0.292969 80.4263 1.22997 80.4263 2.38583C80.4263 3.54168 81.3962 4.47868 82.5926 4.47868Z" fill="#4285F4"/>
<path d="M121.728 7.44141H125.893V22.4484H121.728V7.44141Z" fill="#292929"/>
<path d="M135.629 22.9317C134.716 22.9452 133.806 22.826 132.929 22.5778C132.195 22.3551 131.499 22.0301 130.863 21.6129C130.295 21.2361 129.799 20.7675 129.395 20.2277C129.021 19.7398 128.708 19.2107 128.461 18.6516L132.162 17.1056C132.463 17.8025 132.96 18.4046 133.596 18.8446C134.188 19.2239 134.883 19.4256 135.594 19.4246C136.219 19.4623 136.843 19.3284 137.393 19.0386C137.586 18.9529 137.75 18.8173 137.868 18.6471C137.985 18.4767 138.052 18.2783 138.059 18.0737C138.059 17.8747 138.007 17.679 137.908 17.5045C137.809 17.3301 137.666 17.1826 137.492 17.0756C136.905 16.7242 136.249 16.4942 135.565 16.4L133.365 15.9497C132.848 15.8423 132.345 15.6801 131.864 15.4662C131.355 15.2455 130.884 14.9524 130.464 14.5967C130.041 14.2462 129.69 13.8199 129.432 13.3411C129.136 12.8197 128.997 12.2282 129.033 11.6344C129.032 10.95 129.204 10.2759 129.533 9.67015C129.866 9.1018 130.32 8.60786 130.865 8.22055C131.47 7.80149 132.146 7.48565 132.862 7.2867C133.676 7.06507 134.518 6.95676 135.362 6.96506C136.735 6.9348 138.095 7.22189 139.329 7.80241C140.493 8.36152 141.406 9.31199 141.895 10.4753L138.295 11.8863C138.026 11.327 137.568 10.8731 136.995 10.5996C136.466 10.347 135.885 10.215 135.295 10.2137C134.75 10.204 134.211 10.3257 133.728 10.5675C133.541 10.6434 133.38 10.7679 133.263 10.9271C133.145 11.0864 133.075 11.274 133.062 11.4692C133.068 11.6456 133.125 11.8168 133.225 11.9644C133.324 12.1121 133.465 12.2304 133.629 12.3065C134.101 12.5554 134.605 12.7398 135.13 12.8544L137.497 13.4023C138.833 13.6336 140.066 14.2512 141.031 15.1735C141.788 15.9475 142.205 16.9745 142.197 18.0394C142.192 18.6885 142.032 19.3278 141.73 19.9071C141.398 20.5138 140.947 21.0504 140.398 21.4853C139.767 21.9618 139.057 22.3318 138.298 22.58C137.432 22.8276 136.532 22.9461 135.629 22.9317Z" fill="#292929"/>
<path d="M123.794 4.47868C124.99 4.47868 125.959 3.54168 125.959 2.38583C125.959 1.22997 124.99 0.292969 123.794 0.292969C122.596 0.292969 121.627 1.22997 121.627 2.38583C121.627 3.54168 122.596 4.47868 123.794 4.47868Z" fill="#292929"/>
</g>
</svg>
