<svg width="48" height="49" viewBox="0 0 48 49" fill="none" xmlns="http://www.w3.org/2000/svg">
<path d="M24 18.5C25.6569 18.5 27 17.1569 27 15.5C27 13.8431 25.6569 12.5 24 12.5C22.3431 12.5 21 13.8431 21 15.5C21 17.1569 22.3431 18.5 24 18.5Z" fill="#FCAC02"/>
<path d="M24 4.5C20.0444 4.5 16.1776 5.67298 12.8886 7.87061C9.59962 10.0682 7.03617 13.1918 5.52242 16.8463C4.00867 20.5009 3.6126 24.5222 4.3843 28.4018C5.15601 32.2814 7.06082 35.8451 9.85787 38.6421C12.6549 41.4392 16.2186 43.344 20.0982 44.1157C23.9778 44.8874 27.9992 44.4913 31.6537 42.9776C35.3082 41.4638 38.4318 38.9004 40.6294 35.6114C42.827 32.3224 44 28.4556 44 24.5C44 21.8736 43.4827 19.2728 42.4776 16.8463C41.4725 14.4198 39.9993 12.215 38.1421 10.3579C36.285 8.50069 34.0802 7.0275 31.6537 6.02241C29.2272 5.01732 26.6264 4.5 24 4.5ZM24 40.5C20.8355 40.5 17.7421 39.5616 15.1109 37.8035C12.4797 36.0454 10.4289 33.5466 9.21794 30.6229C8.00693 27.6993 7.69008 24.4823 8.30745 21.3786C8.92481 18.2749 10.4487 15.4239 12.6863 13.1863C14.9239 10.9487 17.7749 9.4248 20.8786 8.80744C23.9823 8.19007 27.1993 8.50693 30.1229 9.71793C33.0466 10.9289 35.5454 12.9797 37.3035 15.6109C39.0616 18.2421 40 21.3355 40 24.5C40 28.7435 38.3143 32.8131 35.3137 35.8137C32.3131 38.8143 28.2435 40.5 24 40.5Z" fill="#FCAC02"/>
<path d="M33 21.5L32 18.5L26 20.5H22L16 18.5L15 21.5L21 23.5V26.5L18 35L21 36.5L23.5 29.5H24.5L27 36.5L30 35L27 26.5V23.5L33 21.5Z" fill="#FCAC02"/>
</svg>
