<svg width="16" height="10" viewBox="0 0 16 10" fill="none" xmlns="http://www.w3.org/2000/svg">
<path d="M13.5309 0.375341L13.5296 0.376519L5.88778 7.11318L2.47078 4.10089C2.47071 4.10083 2.47064 4.10077 2.47056 4.1007C2.37155 4.0128 2.23682 3.96335 2.09629 3.96335C1.95572 3.96335 1.82098 4.01282 1.72196 4.10075C1.72191 4.1008 1.72186 4.10084 1.7218 4.10089L1.15601 4.59966C1.15595 4.59973 1.15587 4.59979 1.1558 4.59986C1.05608 4.68714 1 4.80591 1 4.92979C1 5.0537 1.05611 5.17249 1.15587 5.25979C1.15592 5.25983 1.15596 5.25987 1.15601 5.25992L5.51733 9.10465C5.51741 9.10474 5.5175 9.10474 5.51758 9.10483C5.61659 9.19273 5.75131 9.24219 5.89183 9.24219C6.03235 9.24219 6.16705 9.19273 6.26606 9.10483C6.26614 9.10474 6.26623 9.10474 6.26631 9.10465L14.844 1.54299C14.844 1.54296 14.8441 1.54294 14.8441 1.54292C14.9439 1.45562 15 1.33681 15 1.21286C15 1.08908 14.944 0.970419 14.8445 0.883152C14.8443 0.883014 14.8442 0.882875 14.844 0.882728L14.2785 0.377057V0.377039L14.2765 0.375341C14.0687 0.197803 13.7386 0.197803 13.5309 0.375341Z" fill="white" stroke="white" stroke-width="0.25"/>
</svg>
