<svg width="48" height="48" viewBox="0 0 48 48" fill="none" xmlns="http://www.w3.org/2000/svg">
<path d="M43.5619 27.75L39.5619 22.75C39.3745 22.5159 39.1368 22.3269 38.8664 22.1971C38.596 22.0672 38.2999 21.9999 37.9999 22H25.9999V18H37.9999C40.2059 18 41.9999 16.206 41.9999 14V8C41.9999 5.794 40.2059 4 37.9999 4H9.99995C9.70001 3.99989 9.40389 4.06724 9.13351 4.19706C8.86312 4.32689 8.6254 4.51586 8.43794 4.75L4.43795 9.75C4.15428 10.1049 3.99976 10.5457 3.99976 11C3.99976 11.4543 4.15428 11.8951 4.43795 12.25L8.43794 17.25C8.6254 17.4841 8.86312 17.6731 9.13351 17.8029C9.40389 17.9328 9.70001 18.0001 9.99995 18H21.9999V22H9.99995C7.79395 22 5.99995 23.794 5.99995 26V32C5.99995 34.206 7.79395 36 9.99995 36H21.9999V44H25.9999V36H37.9999C38.2999 36.0001 38.596 35.9328 38.8664 35.8029C39.1368 35.6731 39.3745 35.4841 39.5619 35.25L43.5619 30.25C43.8456 29.8951 44.0001 29.4543 44.0001 29C44.0001 28.5457 43.8456 28.1049 43.5619 27.75ZM8.56195 11L10.9599 8H37.9999L38.0039 14H10.9599L8.56195 11ZM37.0399 32H9.99995V26H37.0399L39.4399 29L37.0399 32Z" fill="#FCAC02"/>
</svg>
