<svg width="24" height="25" viewBox="0 0 24 25" fill="none" xmlns="http://www.w3.org/2000/svg">
<path d="M21 12.2902C21 16.4402 18.79 21.5002 12.13 21.5002C7.12461 21.5334 3.03852 17.5055 3 12.5002C3.03852 7.49485 7.12461 3.46694 12.13 3.5002C14.2007 3.50788 16.2085 4.21237 17.83 5.5002C17.942 5.59173 18.0109 5.72581 18.02 5.8702C18.0206 6.01629 17.963 6.15661 17.86 6.2602C17.209 6.8554 16.5882 7.48285 16 8.1402C15.8289 8.3285 15.5422 8.35456 15.34 8.2002C14.4161 7.51648 13.2888 7.16418 12.14 7.2002C9.18528 7.2002 6.79 9.59548 6.79 12.5502C6.79 15.5049 9.18528 17.9002 12.14 17.9002C15.14 17.9002 16.41 16.6202 17.07 14.3502H12.5C12.2239 14.3502 12 14.1263 12 13.8502V11.2002C12 10.924 12.2239 10.7002 12.5 10.7002H20.5C20.7302 10.6987 20.9244 10.8713 20.95 11.1002C20.9871 11.4957 21.0038 11.8929 21 12.2902Z" fill="#201DB2"/>
</svg>
