<svg width="54" height="54" viewBox="0 0 54 54" fill="none" xmlns="http://www.w3.org/2000/svg">
<path fill-rule="evenodd" clip-rule="evenodd" d="M0.333008 27.0006C0.333008 12.273 12.2721 0.333984 26.9997 0.333984C34.0721 0.333984 40.8549 3.1435 45.8559 8.14444C50.8568 13.1454 53.6663 19.9282 53.6663 27.0006C53.6663 41.7282 41.7273 53.6673 26.9997 53.6673C12.2721 53.6673 0.333008 41.7282 0.333008 27.0006ZM22.1198 38.414L37.6664 28.7073C38.2482 28.3347 38.6001 27.6915 38.6001 27.0006C38.6001 26.3098 38.2482 25.6665 37.6664 25.294L22.0664 15.5873C21.452 15.1999 20.6758 15.1761 20.0388 15.525C19.4018 15.874 19.004 16.5409 18.9998 17.2673V36.734C18.9912 37.478 19.3963 38.1653 20.0514 38.518C20.7065 38.8708 21.5033 38.8307 22.1198 38.414Z" fill="white"/>
</svg>
