<svg width="48" height="48" viewBox="0 0 48 48" fill="none" xmlns="http://www.w3.org/2000/svg">
<path d="M41.84 4.76C39.5947 4.25713 37.301 4.00227 35 4C32.827 3.86202 30.6481 4.15499 28.5887 4.86205C26.5293 5.56912 24.63 6.67632 23 8.12C20.8534 10.2667 18.7267 12.4067 16.62 14.54C14.2 14.28 8.46004 14.14 4.62004 18.02C4.24754 18.3947 4.03845 18.9016 4.03845 19.43C4.03845 19.9584 4.24754 20.4653 4.62004 20.84L27.22 43.48C27.5948 43.8525 28.1017 44.0616 28.63 44.0616C29.1584 44.0616 29.6653 43.8525 30.04 43.48C33.94 39.48 33.82 33.84 33.58 31.48L40 25.08C46.38 18.7 43.48 6.72 43.36 6.22C43.2677 5.85927 43.0765 5.53148 42.808 5.27353C42.5394 5.01559 42.2042 4.83773 41.84 4.76ZM37.12 22.26L30 29.34C29.7695 29.5728 29.5996 29.8588 29.5055 30.1726C29.4113 30.4865 29.3957 30.8187 29.46 31.14C29.8921 33.8156 29.516 36.5593 28.38 39.02L9.04004 19.64C11.5397 18.4895 14.3341 18.1402 17.04 18.64C17.3602 18.6817 17.6857 18.6452 17.9887 18.5338C18.2917 18.4223 18.5632 18.2392 18.78 18C18.78 18 21.58 15.1 25.8 10.88C28.3949 8.79623 31.6802 7.76779 35 8C36.5616 8.00773 38.12 8.1415 39.66 8.4C40.14 11.26 40.9 18.48 37.12 22.26Z" fill="#FF6600"/>
<path d="M31.46 20.6001C33.6691 20.6001 35.46 18.8092 35.46 16.6001C35.46 14.391 33.6691 12.6001 31.46 12.6001C29.2508 12.6001 27.46 14.391 27.46 16.6001C27.46 18.8092 29.2508 20.6001 31.46 20.6001Z" fill="#FF6600"/>
<path d="M10 32C6 34 6 42 6 42C9.70214 41.8944 13.2463 40.4767 16 38L10 32Z" fill="#FF6600"/>
</svg>
