<svg width="48" height="48" viewBox="0 0 48 48" fill="none" xmlns="http://www.w3.org/2000/svg">
<path d="M20 36C23.55 35.9993 26.9976 34.8109 29.794 32.624L38.586 41.416L41.414 38.588L32.622 29.796C34.81 26.9993 35.9991 23.5509 36 20C36 11.178 28.822 4 20 4C11.178 4 4 11.178 4 20C4 28.822 11.178 36 20 36ZM20 8C26.618 8 32 13.382 32 20C32 26.618 26.618 32 20 32C13.382 32 8 26.618 8 20C8 13.382 13.382 8 20 8Z" fill="#00CDFC"/>
<path d="M22.824 17.1722C23.582 17.9322 24 18.9362 24 20.0002H28C28.0018 18.949 27.7952 17.908 27.3922 16.9371C26.9892 15.9663 26.3977 15.085 25.652 14.3442C22.624 11.3202 17.374 11.3202 14.348 14.3442L17.172 17.1762C18.692 15.6602 21.312 15.6642 22.824 17.1722Z" fill="#00CDFC"/>
</svg>
