<svg width="48" height="49" viewBox="0 0 48 49" fill="none" xmlns="http://www.w3.org/2000/svg">
<path d="M24 4.5C22.0222 4.5 20.0888 5.08649 18.4443 6.1853C16.7998 7.28412 15.5181 8.8459 14.7612 10.6732C14.0043 12.5004 13.8063 14.5111 14.1921 16.4509C14.578 18.3907 15.5304 20.1725 16.9289 21.5711C18.3275 22.9696 20.1093 23.922 22.0491 24.3079C23.9889 24.6937 25.9996 24.4957 27.8268 23.7388C29.6541 22.9819 31.2159 21.7002 32.3147 20.0557C33.4135 18.4112 34 16.4778 34 14.5C34 11.8478 32.9464 9.3043 31.0711 7.42893C29.1957 5.55357 26.6522 4.5 24 4.5ZM24 20.5C22.8133 20.5 21.6533 20.1481 20.6666 19.4888C19.6799 18.8295 18.9108 17.8925 18.4567 16.7961C18.0026 15.6997 17.8838 14.4933 18.1153 13.3295C18.3468 12.1656 18.9182 11.0965 19.7574 10.2574C20.5965 9.41824 21.6656 8.8468 22.8295 8.61529C23.9933 8.38378 25.1997 8.5026 26.2961 8.95672C27.3925 9.41085 28.3295 10.1799 28.9888 11.1666C29.6481 12.1533 30 13.3133 30 14.5C30 16.0913 29.3679 17.6174 28.2426 18.7426C27.1174 19.8679 25.5913 20.5 24 20.5ZM42 42.5V40.5C42 36.787 40.525 33.226 37.8995 30.6005C35.274 27.975 31.713 26.5 28 26.5H20C16.287 26.5 12.726 27.975 10.1005 30.6005C7.475 33.226 6 36.787 6 40.5V42.5H10V40.5C10 37.8478 11.0536 35.3043 12.9289 33.4289C14.8043 31.5536 17.3478 30.5 20 30.5H28C30.6522 30.5 33.1957 31.5536 35.0711 33.4289C36.9464 35.3043 38 37.8478 38 40.5V42.5H42Z" fill="#FF6600"/>
</svg>
