<svg width="49" height="48" viewBox="0 0 49 48" fill="none" xmlns="http://www.w3.org/2000/svg">
<path d="M36.0807 26.1001C35.8951 25.9142 35.6747 25.7667 35.4321 25.6661C35.1894 25.5655 34.9294 25.5137 34.6667 25.5137C34.404 25.5137 34.1439 25.5655 33.9013 25.6661C33.6587 25.7667 33.4383 25.9142 33.2527 26.1001L30.0647 29.2881C28.5867 28.8481 25.8287 27.8481 24.0807 26.1001C22.3327 24.3521 21.3327 21.5941 20.8927 20.1161L24.0807 16.9281C24.2666 16.7425 24.414 16.5221 24.5147 16.2795C24.6153 16.0368 24.6671 15.7767 24.6671 15.5141C24.6671 15.2514 24.6153 14.9913 24.5147 14.7487C24.414 14.5061 24.2666 14.2857 24.0807 14.1001L16.0807 6.10007C15.8951 5.91418 15.6747 5.76671 15.4321 5.66609C15.1894 5.56546 14.9294 5.51367 14.6667 5.51367C14.404 5.51367 14.1439 5.56546 13.9013 5.66609C13.6587 5.76671 13.4383 5.91418 13.2527 6.10007L7.82868 11.5241C7.06868 12.2841 6.64068 13.3281 6.65668 14.3941C6.70268 17.2421 7.45668 27.1341 15.2527 34.9301C23.0487 42.7261 32.9407 43.4781 35.7907 43.5261H35.8467C36.9027 43.5261 37.9007 43.1101 38.6567 42.3541L44.0807 36.9301C44.2666 36.7445 44.414 36.5241 44.5147 36.2815C44.6153 36.0388 44.6671 35.7787 44.6671 35.5161C44.6671 35.2534 44.6153 34.9933 44.5147 34.7507C44.414 34.5081 44.2666 34.2877 44.0807 34.1021L36.0807 26.1001ZM35.8267 39.5241C33.3307 39.4821 24.7907 38.8121 18.0807 32.1001C11.3487 25.3681 10.6967 16.7981 10.6567 14.3521L14.6667 10.3421L19.8387 15.5141L17.2527 18.1001C17.0176 18.335 16.8448 18.6247 16.7498 18.9432C16.6548 19.2617 16.6407 19.5988 16.7087 19.9241C16.7567 20.1541 17.9307 25.6081 21.2507 28.9281C24.5707 32.2481 30.0247 33.4221 30.2547 33.4701C30.5798 33.54 30.9172 33.527 31.236 33.4323C31.5547 33.3376 31.8445 33.1642 32.0787 32.9281L34.6667 30.3421L39.8387 35.5141L35.8267 39.5241Z" fill="#00CDFC"/>
</svg>
